<svg width="22" height="22" viewBox="0 0 22 22" fill="none" xmlns="http://www.w3.org/2000/svg">
<mask id="mask0_997_106" style="mask-type:alpha" maskUnits="userSpaceOnUse" x="0" y="0" width="22" height="22">
<rect width="22" height="22" fill="#D9D9D9"/>
</mask>
<g mask="url(#mask0_997_106)">
<path d="M10.3125 19.5177V11.3946L3.20833 7.28728V14.476C3.20833 14.7768 3.28121 15.0531 3.42696 15.3047C3.57271 15.5562 3.77605 15.7571 4.037 15.9074L10.3125 19.5177ZM11.6875 19.5177L17.963 15.9074C18.2239 15.7571 18.4273 15.5562 18.573 15.3047C18.7188 15.0531 18.7917 14.7768 18.7917 14.476V7.28728L11.6875 11.3946V19.5177ZM15.1901 7.78618L18.0441 6.13435L11.8284 2.56118C11.5676 2.41069 11.2915 2.33545 11 2.33545C10.7085 2.33545 10.4324 2.41069 10.1716 2.56118L8.15833 3.71595L15.1901 7.78618ZM11 10.2101L13.8153 8.59009L6.77989 4.51437L3.9506 6.13962L11 10.2101Z" fill="white"/>
</g>
</svg>
